<mxfile host="app.diagrams.net" modified="2020-03-15T20:16:02.281Z" agent="Mozilla/5.0 (Windows NT 10.0; Win64; x64) AppleWebKit/537.36 (KHTML, like Gecko) Chrome/80.0.3987.132 Safari/537.36" etag="a_saDsRNe_o-XiEMn3sL" version="12.8.5" type="github">
  <diagram id="FT8EMyBMdByh8OYh1Tu6" name="Page-1">
    <mxGraphModel dx="1182" dy="683" grid="1" gridSize="10" guides="1" tooltips="1" connect="1" arrows="1" fold="1" page="1" pageScale="1" pageWidth="827" pageHeight="1169" math="0" shadow="0">
      <root>
        <mxCell id="0" />
        <mxCell id="1" parent="0" />
        <object label="UniversityPlatform" id="10jjJpfhh9QXBU1JMo4s-1">
          <mxCell style="swimlane;fontStyle=0;childLayout=stackLayout;horizontal=1;startSize=26;fillColor=none;horizontalStack=0;resizeParent=1;resizeParentMax=0;resizeLast=0;collapsible=1;marginBottom=0;" vertex="1" parent="1">
            <mxGeometry x="50" y="39" width="300" height="546" as="geometry">
              <mxRectangle x="60" y="60" width="130" height="26" as="alternateBounds" />
            </mxGeometry>
          </mxCell>
        </object>
        <mxCell id="10jjJpfhh9QXBU1JMo4s-2" value="- _token: ECTSToken" style="text;strokeColor=none;fillColor=none;align=left;verticalAlign=top;spacingLeft=4;spacingRight=4;overflow=hidden;rotatable=0;points=[[0,0.5],[1,0.5]];portConstraint=eastwest;fontSize=8;" vertex="1" parent="10jjJpfhh9QXBU1JMo4s-1">
          <mxGeometry y="26" width="300" height="26" as="geometry" />
        </mxCell>
        <mxCell id="10jjJpfhh9QXBU1JMo4s-3" value="- _priceOfOneTokenInWei: uint256" style="text;strokeColor=none;fillColor=none;align=left;verticalAlign=top;spacingLeft=4;spacingRight=4;overflow=hidden;rotatable=0;points=[[0,0.5],[1,0.5]];portConstraint=eastwest;fontSize=8;" vertex="1" parent="10jjJpfhh9QXBU1JMo4s-1">
          <mxGeometry y="52" width="300" height="26" as="geometry" />
        </mxCell>
        <mxCell id="10jjJpfhh9QXBU1JMo4s-4" value="- _priceOfOneTokenInWeiForRefund: uint256" style="text;strokeColor=none;fillColor=none;align=left;verticalAlign=top;spacingLeft=4;spacingRight=4;overflow=hidden;rotatable=0;points=[[0,0.5],[1,0.5]];portConstraint=eastwest;fontSize=8;" vertex="1" parent="10jjJpfhh9QXBU1JMo4s-1">
          <mxGeometry y="78" width="300" height="26" as="geometry" />
        </mxCell>
        <mxCell id="10jjJpfhh9QXBU1JMo4s-9" value="- _weiRaised: uint256" style="text;strokeColor=none;fillColor=none;align=left;verticalAlign=top;spacingLeft=4;spacingRight=4;overflow=hidden;rotatable=0;points=[[0,0.5],[1,0.5]];portConstraint=eastwest;fontSize=8;" vertex="1" parent="10jjJpfhh9QXBU1JMo4s-1">
          <mxGeometry y="104" width="300" height="26" as="geometry" />
        </mxCell>
        <mxCell id="10jjJpfhh9QXBU1JMo4s-10" value="- _universities: mapping(address =&gt; address)" style="text;strokeColor=none;fillColor=none;align=left;verticalAlign=top;spacingLeft=4;spacingRight=4;overflow=hidden;rotatable=0;points=[[0,0.5],[1,0.5]];portConstraint=eastwest;fontSize=8;" vertex="1" parent="10jjJpfhh9QXBU1JMo4s-1">
          <mxGeometry y="130" width="300" height="26" as="geometry" />
        </mxCell>
        <mxCell id="10jjJpfhh9QXBU1JMo4s-11" value="- _listUniversities: address[]" style="text;strokeColor=none;fillColor=none;align=left;verticalAlign=top;spacingLeft=4;spacingRight=4;overflow=hidden;rotatable=0;points=[[0,0.5],[1,0.5]];portConstraint=eastwest;fontSize=8;" vertex="1" parent="10jjJpfhh9QXBU1JMo4s-1">
          <mxGeometry y="156" width="300" height="26" as="geometry" />
        </mxCell>
        <mxCell id="10jjJpfhh9QXBU1JMo4s-12" value="- _students: mapping(address =&gt; address)" style="text;strokeColor=none;fillColor=none;align=left;verticalAlign=top;spacingLeft=4;spacingRight=4;overflow=hidden;rotatable=0;points=[[0,0.5],[1,0.5]];portConstraint=eastwest;fontSize=8;" vertex="1" parent="10jjJpfhh9QXBU1JMo4s-1">
          <mxGeometry y="182" width="300" height="26" as="geometry" />
        </mxCell>
        <mxCell id="10jjJpfhh9QXBU1JMo4s-13" value="- _listStudents: address[]" style="text;strokeColor=none;fillColor=none;align=left;verticalAlign=top;spacingLeft=4;spacingRight=4;overflow=hidden;rotatable=0;points=[[0,0.5],[1,0.5]];portConstraint=eastwest;fontSize=8;" vertex="1" parent="10jjJpfhh9QXBU1JMo4s-1">
          <mxGeometry y="208" width="300" height="26" as="geometry" />
        </mxCell>
        <mxCell id="10jjJpfhh9QXBU1JMo4s-15" value="+ constructor(address addressSCECTSToken)" style="text;strokeColor=#666666;fillColor=#f5f5f5;align=left;verticalAlign=top;spacingLeft=4;spacingRight=4;overflow=hidden;rotatable=0;points=[[0,0.5],[1,0.5]];portConstraint=eastwest;fontColor=#333333;fontSize=8;" vertex="1" parent="10jjJpfhh9QXBU1JMo4s-1">
          <mxGeometry y="234" width="300" height="26" as="geometry" />
        </mxCell>
        <mxCell id="10jjJpfhh9QXBU1JMo4s-16" value="+ getECTSTokenAddress()" style="text;strokeColor=#666666;fillColor=#f5f5f5;align=left;verticalAlign=top;spacingLeft=4;spacingRight=4;overflow=hidden;rotatable=0;points=[[0,0.5],[1,0.5]];portConstraint=eastwest;fontColor=#333333;fontSize=8;" vertex="1" parent="10jjJpfhh9QXBU1JMo4s-1">
          <mxGeometry y="260" width="300" height="26" as="geometry" />
        </mxCell>
        <mxCell id="10jjJpfhh9QXBU1JMo4s-17" value="+ registerUniversity(address accountUniversity, address accountSCUniversity)" style="text;strokeColor=#666666;fillColor=#f5f5f5;align=left;verticalAlign=top;spacingLeft=4;spacingRight=4;overflow=hidden;rotatable=0;points=[[0,0.5],[1,0.5]];portConstraint=eastwest;fontColor=#333333;fontSize=8;" vertex="1" parent="10jjJpfhh9QXBU1JMo4s-1">
          <mxGeometry y="286" width="300" height="26" as="geometry" />
        </mxCell>
        <mxCell id="10jjJpfhh9QXBU1JMo4s-18" value="+ registerStudent(address accountStudent, address accountSCStudent)" style="text;strokeColor=#666666;fillColor=#f5f5f5;align=left;verticalAlign=top;spacingLeft=4;spacingRight=4;overflow=hidden;rotatable=0;points=[[0,0.5],[1,0.5]];portConstraint=eastwest;fontColor=#333333;fontSize=8;" vertex="1" parent="10jjJpfhh9QXBU1JMo4s-1">
          <mxGeometry y="312" width="300" height="26" as="geometry" />
        </mxCell>
        <mxCell id="10jjJpfhh9QXBU1JMo4s-19" value="+ getUniversities()" style="text;strokeColor=#666666;fillColor=#f5f5f5;align=left;verticalAlign=top;spacingLeft=4;spacingRight=4;overflow=hidden;rotatable=0;points=[[0,0.5],[1,0.5]];portConstraint=eastwest;fontColor=#333333;fontSize=8;" vertex="1" parent="10jjJpfhh9QXBU1JMo4s-1">
          <mxGeometry y="338" width="300" height="26" as="geometry" />
        </mxCell>
        <mxCell id="10jjJpfhh9QXBU1JMo4s-20" value="+ getUniversity(address accountUniversity)" style="text;strokeColor=#666666;fillColor=#f5f5f5;align=left;verticalAlign=top;spacingLeft=4;spacingRight=4;overflow=hidden;rotatable=0;points=[[0,0.5],[1,0.5]];portConstraint=eastwest;fontColor=#333333;fontSize=8;" vertex="1" parent="10jjJpfhh9QXBU1JMo4s-1">
          <mxGeometry y="364" width="300" height="26" as="geometry" />
        </mxCell>
        <mxCell id="10jjJpfhh9QXBU1JMo4s-21" value="+ getStudents()" style="text;strokeColor=#666666;fillColor=#f5f5f5;align=left;verticalAlign=top;spacingLeft=4;spacingRight=4;overflow=hidden;rotatable=0;points=[[0,0.5],[1,0.5]];portConstraint=eastwest;fontColor=#333333;fontSize=8;" vertex="1" parent="10jjJpfhh9QXBU1JMo4s-1">
          <mxGeometry y="390" width="300" height="26" as="geometry" />
        </mxCell>
        <mxCell id="10jjJpfhh9QXBU1JMo4s-22" value="+ getStudent(address accountStudent)" style="text;strokeColor=#666666;fillColor=#f5f5f5;align=left;verticalAlign=top;spacingLeft=4;spacingRight=4;overflow=hidden;rotatable=0;points=[[0,0.5],[1,0.5]];portConstraint=eastwest;fontColor=#333333;fontSize=8;" vertex="1" parent="10jjJpfhh9QXBU1JMo4s-1">
          <mxGeometry y="416" width="300" height="26" as="geometry" />
        </mxCell>
        <mxCell id="10jjJpfhh9QXBU1JMo4s-23" value="+ buyTokens(address beneficiary): payable" style="text;strokeColor=#666666;fillColor=#f5f5f5;align=left;verticalAlign=top;spacingLeft=4;spacingRight=4;overflow=hidden;rotatable=0;points=[[0,0.5],[1,0.5]];portConstraint=eastwest;fontColor=#333333;fontSize=8;" vertex="1" parent="10jjJpfhh9QXBU1JMo4s-1">
          <mxGeometry y="442" width="300" height="26" as="geometry" />
        </mxCell>
        <mxCell id="10jjJpfhh9QXBU1JMo4s-24" value="+ setTokenPrice(uint256 tokenpricewei)" style="text;strokeColor=#666666;fillColor=#f5f5f5;align=left;verticalAlign=top;spacingLeft=4;spacingRight=4;overflow=hidden;rotatable=0;points=[[0,0.5],[1,0.5]];portConstraint=eastwest;fontColor=#333333;fontSize=8;" vertex="1" parent="10jjJpfhh9QXBU1JMo4s-1">
          <mxGeometry y="468" width="300" height="26" as="geometry" />
        </mxCell>
        <mxCell id="10jjJpfhh9QXBU1JMo4s-44" value="+ setTokenPriceForRefund(uint256 tokenpriceweiforrefund)" style="text;strokeColor=#666666;fillColor=#f5f5f5;align=left;verticalAlign=top;spacingLeft=4;spacingRight=4;overflow=hidden;rotatable=0;points=[[0,0.5],[1,0.5]];portConstraint=eastwest;fontColor=#333333;fontSize=8;" vertex="1" parent="10jjJpfhh9QXBU1JMo4s-1">
          <mxGeometry y="494" width="300" height="26" as="geometry" />
        </mxCell>
        <mxCell id="10jjJpfhh9QXBU1JMo4s-45" value="+ refundECTS(address account, uint256 amount)" style="text;strokeColor=#666666;fillColor=#f5f5f5;align=left;verticalAlign=top;spacingLeft=4;spacingRight=4;overflow=hidden;rotatable=0;points=[[0,0.5],[1,0.5]];portConstraint=eastwest;fontColor=#333333;fontSize=8;" vertex="1" parent="10jjJpfhh9QXBU1JMo4s-1">
          <mxGeometry y="520" width="300" height="26" as="geometry" />
        </mxCell>
      </root>
    </mxGraphModel>
  </diagram>
</mxfile>
